<?xml version="1.0" encoding="utf-8"?>
<!-- Generator: Adobe Illustrator 23.1.1, SVG Export Plug-In . SVG Version: 6.00 Build 0)  -->
<svg version="1.1" id="Layer_1" xmlns="http://www.w3.org/2000/svg" xmlns:xlink="http://www.w3.org/1999/xlink" x="0px" y="0px"
	 width="21px" height="20px" viewBox="0 0 21 20" style="enable-background:new 0 0 21 20;" xml:space="preserve">
<style type="text/css">
	.st0{fill:#18ABCE;}
</style>
<g id="arrow">
	<g>
		<path class="st0" d="M21,10.5c0,0.82-0.67,1.5-1.5,1.5h-18C0.68,12,0,11.32,0,10.5v-1C0,8.68,0.68,8,1.5,8h18
			C20.33,8,21,8.68,21,9.5V10.5z"/>
	</g>
	<g>
		<path class="st0" d="M10.45,1.05c0.78,0.78,0.78,2.05,0,2.83l-7.07,7.07c-0.78,0.78-2.05,0.78-2.83,0l0,0
			c-0.78-0.78-0.78-2.05,0-2.83l7.07-7.07C8.4,0.27,9.67,0.27,10.45,1.05L10.45,1.05z"/>
	</g>
	<g>
		<path class="st0" d="M10.45,18.95c-0.78,0.78-2.05,0.78-2.83,0l-7.07-7.07c-0.78-0.78-0.78-2.05,0-2.83l0,0
			c0.78-0.78,2.05-0.78,2.83,0l7.07,7.07C11.23,16.9,11.23,18.17,10.45,18.95L10.45,18.95z"/>
	</g>
</g>
</svg>
