<?xml version="1.0" encoding="utf-8"?>
<!-- Generator: Adobe Illustrator 23.1.1, SVG Export Plug-In . SVG Version: 6.00 Build 0)  -->
<svg version="1.1" id="Layer_1" xmlns="http://www.w3.org/2000/svg" xmlns:xlink="http://www.w3.org/1999/xlink" x="0px" y="0px"
	 width="22px" height="21px" viewBox="0 0 22 21" style="enable-background:new 0 0 22 21;" xml:space="preserve">
<style type="text/css">
	.st0{fill:#FFFFFF;}
</style>
<g id="arrow">
	<g>
		<path class="st0" d="M11.5,0C12.32,0,13,0.68,13,1.5v18c0,0.83-0.68,1.5-1.5,1.5h-1C9.68,21,9,20.33,9,19.5v-18
			C9,0.68,9.68,0,10.5,0H11.5z"/>
	</g>
	<g>
		<path class="st0" d="M11.45,1.05c0.78,0.78,0.78,2.05,0,2.83l-7.07,7.07c-0.78,0.78-2.05,0.78-2.83,0c-0.78-0.78-0.78-2.05,0-2.83
			l7.07-7.07C9.4,0.27,10.67,0.27,11.45,1.05L11.45,1.05z"/>
	</g>
	<g>
		<path class="st0" d="M20.45,10.95c-0.78,0.78-2.05,0.78-2.83,0l-7.07-7.07c-0.78-0.78-0.78-2.05,0-2.83l0,0
			c0.78-0.78,2.05-0.78,2.83,0l7.07,7.07C21.23,8.9,21.23,10.17,20.45,10.95L20.45,10.95z"/>
	</g>
</g>
</svg>
