<?xml version="1.0" encoding="utf-8"?>
<!-- Generator: Adobe Illustrator 23.1.1, SVG Export Plug-In . SVG Version: 6.00 Build 0)  -->
<svg version="1.1" id="Layer_1" xmlns="http://www.w3.org/2000/svg" xmlns:xlink="http://www.w3.org/1999/xlink" x="0px" y="0px"
	 width="22px" height="21px" viewBox="0 0 22 21" style="enable-background:new 0 0 22 21;" xml:space="preserve">
<style type="text/css">
	.st0{fill:#FFFFFF;}
</style>
<g id="arrow">
	<g>
		<path class="st0" d="M11.5,20.14c0.82,0,1.5-0.67,1.5-1.5v-17c0-0.83-0.68-1.5-1.5-1.5h-1C9.68,0.14,9,0.81,9,1.64v17
			c0,0.83,0.68,1.5,1.5,1.5H11.5z"/>
	</g>
	<g>
		<path class="st0" d="M11.45,19.59c0.78-0.78,0.78-2.05,0-2.83L4.38,9.69c-0.78-0.78-2.05-0.78-2.83,0c-0.78,0.78-0.78,2.05,0,2.83
			l7.07,7.07C9.4,20.36,10.67,20.36,11.45,19.59L11.45,19.59z"/>
	</g>
	<g>
		<path class="st0" d="M20.45,9.69c-0.78-0.78-2.05-0.78-2.83,0l-7.07,7.07c-0.78,0.78-0.78,2.05,0,2.83l0,0
			c0.78,0.78,2.05,0.78,2.83,0l7.07-7.07C21.23,11.74,21.23,10.46,20.45,9.69L20.45,9.69z"/>
	</g>
</g>
</svg>
