<?xml version="1.0" encoding="utf-8"?>
<!-- Generator: Adobe Illustrator 23.1.1, SVG Export Plug-In . SVG Version: 6.00 Build 0)  -->
<svg version="1.1" id="Layer_1" xmlns="http://www.w3.org/2000/svg" xmlns:xlink="http://www.w3.org/1999/xlink" x="0px" y="0px"
	 width="21.1px" height="18px" viewBox="0 0 21.1 18" style="enable-background:new 0 0 21.1 18;" xml:space="preserve">
<style type="text/css">
	.st0{fill-rule:evenodd;clip-rule:evenodd;fill:#18ABCE;}
</style>
<path class="st0" d="M9.9,0c0.6,0,1.3,0.4,1,1.2c-0.1,0.3-0.4,0.5-0.7,0.7c-0.5,0.5-1,0.9-1.4,1.4C7.6,4.5,6.3,5.7,5.1,6.9
	C4.3,7.7,3.4,8.4,3,9.5c-1.3,2.9,0.6,5.6,2.8,6.4c1.2,0.5,2.9,0.4,4.2-0.3c1.2-0.6,2-1.8,3-2.7c1.7-1.7,3.5-3.4,5.2-5
	c1.1-1.1,1.1-3.4-0.2-4.4c-0.9-0.7-2.4-1.1-3.6-0.5c-0.8,0.4-1.3,1.1-1.9,1.7c-1.2,1.1-2.3,2.2-3.5,3.4c-0.6,0.6-2.7,2-1.9,3.3
	c0.4,0.6,1.4,0.8,2,0.3c1.7-1.7,3.4-3.4,5.1-5c0.4-0.4,1.2-1.6,2.1-1.1c0.2,0.1,0.4,0.3,0.4,0.5c0.1,0.3,0,0.7-0.2,0.8
	c-0.7,0.6-1.3,1.3-2,1.9c-1,1-2,2-3.1,3c-0.6,0.6-1.1,1.2-1.8,1.6c-1.3,0.8-3.1,0.2-3.9-0.7c-0.2-0.3-0.4-0.6-0.6-0.9
	C4.3,9.8,6,8.5,7,7.6c1.3-1.3,2.6-2.5,3.8-3.7c0.8-0.8,1.6-1.7,2.6-2.3c1.7-1,4.1-0.5,5.4,0.5c1.5,1.1,2.5,3.5,1.5,5.8
	c-0.6,1.4-2,2.4-3,3.4c-1.2,1.2-2.4,2.4-3.6,3.6c-0.9,0.9-1.8,1.8-2.9,2.5c-0.8,0.5-2,0.7-2.9,0.8c-0.7,0.1-1.5-0.2-1.8-0.1
	c-0.6-0.2-1.4-0.4-2.1-0.8c-1.7-1-3.8-3.5-3.2-6.5c0.1-0.5,0.2-1,0.3-1.4C1.8,7.6,2.9,6.6,4,5.5c1-1,2.1-2,3.1-3
	C7.9,1.8,8.9,0.4,9.9,0z"/>
</svg>
