<?xml version="1.0" encoding="utf-8"?>
<!-- Generator: Adobe Illustrator 23.1.1, SVG Export Plug-In . SVG Version: 6.00 Build 0)  -->
<svg version="1.1" id="Layer_1" xmlns="http://www.w3.org/2000/svg" xmlns:xlink="http://www.w3.org/1999/xlink" x="0px" y="0px"
	 width="35px" height="34px" viewBox="0 0 35 34" style="enable-background:new 0 0 35 34;" xml:space="preserve">
<style type="text/css">
	.st0{fill-rule:evenodd;clip-rule:evenodd;fill:#C7BADE;}
	.st1{fill:#9D87C4;}
</style>
<path class="st0" d="M17.85,0.22c9.39,0,17,7.53,17,16.83c0,2.72-0.65,5.28-1.8,7.55c-0.76,1.49,1.62,5.4,0.46,6.6
	c-0.89,0.92-5.23-0.81-6.3-0.1c-2.68,1.76-5.9,2.78-9.36,2.78c-9.39,0-17-7.53-17-16.83C0.85,7.76,8.46,0.22,17.85,0.22z"/>
<path class="st1" d="M16.93,10.27c0.66,0,1.3,0.09,1.92,0.27s1.18,0.45,1.66,0.81c0.48,0.36,0.87,0.8,1.17,1.32
	c0.29,0.53,0.44,1.13,0.44,1.82c0,0.56-0.09,1.05-0.26,1.46s-0.4,0.78-0.67,1.11s-0.57,0.63-0.89,0.9
	c-0.32,0.27-0.63,0.53-0.91,0.78c-0.29,0.25-0.54,0.5-0.76,0.77c-0.22,0.27-0.35,0.55-0.39,0.86c-0.03,0.15-0.09,0.29-0.19,0.4
	c-0.1,0.11-0.22,0.17-0.38,0.17h-1.6c-0.15,0-0.29-0.06-0.41-0.17c-0.12-0.11-0.17-0.24-0.16-0.4c0.03-0.55,0.14-1.03,0.35-1.44
	s0.45-0.78,0.74-1.11c0.29-0.33,0.59-0.63,0.92-0.89c0.33-0.27,0.63-0.52,0.91-0.77s0.51-0.49,0.69-0.74
	c0.18-0.24,0.27-0.51,0.27-0.81c0-0.53-0.22-0.97-0.67-1.31c-0.45-0.34-1.04-0.51-1.78-0.51c-1.19,0-2.06,0.59-2.62,1.78
	c-0.07,0.15-0.14,0.27-0.22,0.35C14,15,13.87,15.03,13.69,15.03h-1.7c-0.13,0-0.23-0.04-0.33-0.13c-0.09-0.08-0.14-0.2-0.14-0.34
	c0.01-0.49,0.16-0.99,0.45-1.5c0.29-0.51,0.67-0.97,1.15-1.39c0.48-0.41,1.05-0.75,1.7-1.02S16.18,10.27,16.93,10.27z M17.77,22.19
	c0.15,0,0.29,0.06,0.4,0.17c0.11,0.11,0.17,0.25,0.17,0.4v1.85c0,0.15-0.06,0.29-0.17,0.4s-0.24,0.17-0.4,0.17h-1.81
	c-0.15,0-0.29-0.06-0.4-0.17c-0.11-0.11-0.17-0.25-0.17-0.4v-1.85c0-0.15,0.06-0.29,0.17-0.4c0.11-0.11,0.24-0.17,0.4-0.17H17.77z"
	/>
</svg>
