<?xml version="1.0" encoding="utf-8"?>
<!-- Generator: Adobe Illustrator 23.1.1, SVG Export Plug-In . SVG Version: 6.00 Build 0)  -->
<svg version="1.1" id="Layer_1" xmlns="http://www.w3.org/2000/svg" xmlns:xlink="http://www.w3.org/1999/xlink" x="0px" y="0px"
	 width="23px" height="23px" viewBox="0 0 23 23" style="enable-background:new 0 0 23 23;" xml:space="preserve">
<style type="text/css">
	.st0{fill-rule:evenodd;clip-rule:evenodd;fill:#60BE82;}
</style>
<path class="st0" d="M10.76,0.37c4.22-0.07,7.19,2.15,8.45,5.01c0.24,0.54,0.44,1.11,0.6,1.72c0.08,0.3,0.06,0.7,0.2,0.95
	c0.53,0.19,0.83,0.73,1.13,1.17c0.94,1.42,1.58,3.92,0.9,6.11c-0.33,1.09-0.9,2.36-1.74,2.96c-0.25,0.13-0.5,0.25-0.75,0.38
	c-0.12,0.02-0.24,0.04-0.35,0.07c-0.06,0.1-0.12,0.21-0.18,0.31c-0.28,0.31-0.56,0.62-0.84,0.93c-1.11,0.89-2.31,1.33-4.13,1.57
	c-0.03,0.4-0.23,0.71-0.53,0.84c-0.3,0.13-0.87,0.07-1.28,0.07c-0.99,0-1.97,0-2.96,0c-0.79-0.17-0.75-0.91-0.75-1.88
	c0-0.32,0-0.65,0-0.97c0.07-0.34,0.27-0.63,0.55-0.75c0.39-0.16,1.13-0.07,1.63-0.07c1.36,0,3.22-0.37,3.33,0.93
	c1.31-0.06,2.67-0.64,3.24-1.46c-0.31-0.4-0.67-0.68-0.84-1.24c-0.22-0.72,0.04-1.44,0.18-2.05c0.13-0.57,0.13-1.2,0.13-1.88
	c0-1.03-0.25-1.82-0.4-2.65c-0.22-1.27,0.86-2.36,1.72-2.58c-0.07-0.8-0.44-1.55-0.77-2.12c-1.24-2.09-4.08-4.35-7.7-3.35
	C7.24,3.04,4.76,5.16,4.49,7.85c0.87,0.22,1.94,1.32,1.72,2.6c-0.14,0.84-0.4,1.6-0.4,2.65c0,1.18,0.24,2.03,0.4,2.96
	c0.26,1.48-1.06,2.5-2.16,2.69c-1.51,0.26-2.24-0.89-2.74-1.7c-1.68-2.75-1.24-7.52,1.3-9.05c0.62-3.5,2.46-5.77,5.34-7
	c0.57-0.24,1.2-0.39,1.85-0.53C10.12,0.45,10.44,0.41,10.76,0.37z"/>
</svg>
