<?xml version="1.0" encoding="utf-8"?>
<!-- Generator: Adobe Illustrator 23.1.1, SVG Export Plug-In . SVG Version: 6.00 Build 0)  -->
<svg version="1.1" id="list" xmlns="http://www.w3.org/2000/svg" xmlns:xlink="http://www.w3.org/1999/xlink" x="0px" y="0px"
	 width="24px" height="16px" viewBox="0 0 24 16" style="enable-background:new 0 0 24 16;" xml:space="preserve">
<style type="text/css">
	.st0{fill-rule:evenodd;clip-rule:evenodd;fill:#60BE82;}
	.st1{fill-rule:evenodd;clip-rule:evenodd;fill:#85D7A3;}
</style>
<g>
	<path class="st0" d="M18,8c0,1.1-0.9,2-2,2H2c-1.1,0-2-0.9-2-2l0,0c0-1.1,0.9-2,2-2h14C17.1,6,18,6.9,18,8L18,8z"/>
</g>
<g>
	<circle class="st0" cx="22" cy="8" r="2"/>
</g>
<g>
	<path class="st1" d="M18,2c0,1.1-0.9,2-2,2H2C0.9,4,0,3.1,0,2l0,0c0-1.1,0.9-2,2-2h14C17.1,0,18,0.9,18,2L18,2z"/>
</g>
<g>
	<circle class="st1" cx="22" cy="2" r="2"/>
</g>
<g>
	<path class="st1" d="M18,14c0,1.1-0.9,2-2,2H2c-1.1,0-2-0.9-2-2l0,0c0-1.1,0.9-2,2-2h14C17.1,12,18,12.9,18,14L18,14z"/>
</g>
<g>
	<circle class="st1" cx="22" cy="14" r="2"/>
</g>
</svg>
