<?xml version="1.0" encoding="utf-8"?>
<!-- Generator: Adobe Illustrator 23.1.1, SVG Export Plug-In . SVG Version: 6.00 Build 0)  -->
<svg version="1.1" id="Layer_1" xmlns="http://www.w3.org/2000/svg" xmlns:xlink="http://www.w3.org/1999/xlink" x="0px" y="0px"
	 width="18px" height="18px" viewBox="0 0 18 18" style="enable-background:new 0 0 18 18;" xml:space="preserve">
<style type="text/css">
	.st0{fill-rule:evenodd;clip-rule:evenodd;fill:#FFFFFF;}
</style>
<g id="close">
	<path class="st0" d="M17.47,17.3l-0.16,0.16c-0.77,0.77-2.02,0.77-2.8,0L0.53,3.49c-0.77-0.77-0.77-2.02,0-2.8L0.7,0.53
		c0.77-0.77,2.02-0.77,2.8,0l13.98,13.98C18.24,15.28,18.24,16.53,17.47,17.3z"/>
	<path class="st0" d="M0.7,17.47L0.53,17.3c-0.77-0.77-0.77-2.02,0-2.8L14.51,0.53c0.77-0.77,2.02-0.77,2.8,0l0.16,0.16
		c0.77,0.77,0.77,2.02,0,2.8L3.49,17.47C2.72,18.24,1.47,18.24,0.7,17.47z"/>
</g>
</svg>
