<?xml version="1.0" encoding="utf-8"?>
<!-- Generator: Adobe Illustrator 23.1.1, SVG Export Plug-In . SVG Version: 6.00 Build 0)  -->
<svg version="1.1" id="Layer_1" xmlns="http://www.w3.org/2000/svg" xmlns:xlink="http://www.w3.org/1999/xlink" x="0px" y="0px"
	 width="22.76px" height="30.33px" viewBox="0 0 22.76 30.33" style="enable-background:new 0 0 22.76 30.33;" xml:space="preserve"
	>
<style type="text/css">
	.st0{fill-rule:evenodd;clip-rule:evenodd;fill:#3C905B;}
</style>
<path class="st0" d="M1.21,0.67c4.97,0,9.95,0,14.92,0c0.45,0.1,1.13,0.99,1.46,1.31c1,0.99,2,1.98,3,2.98
	c0.33,0.32,1.09,0.89,1.26,1.29c0.19,0.46,0.04,2.44,0.04,3.11c0,2.47,0,4.94,0,7.42c0,3.06,0,6.11,0,9.17
	c0,1.31,0.21,2.86-0.57,3.41c-0.72,0.51-3.34,0.26-4.57,0.26c-3.93,0-7.86,0-11.79,0c-1.67,0-4.15,0.35-4.79-0.7
	C-0.18,28.32,0,25.7,0,24.71c0-3.54,0-7.09,0-10.63c0-3.08,0-6.17,0-9.25C0,4-0.15,2.13,0.09,1.54C0.31,1.01,0.69,0.91,1.21,0.67z
	 M20.53,7.21c-1.35,0.01-4.21,0.27-4.83-0.42c-0.66-0.73-0.41-3.38-0.4-4.77c-3.3,0-6.59,0-9.89,0c-0.94,0-1.88,0-2.83,0
	c-0.36,0-0.94-0.08-1.21,0.04c0,6.22,0,12.44,0,18.66c0,1.77,0,3.54,0,5.32c0,0.54-0.14,1.81,0.04,2.21c4.53,0,9.07,0,13.6,0
	c1.29,0,2.59,0,3.88,0c0.47,0,1.26,0.12,1.63-0.04C20.53,21.21,20.53,14.21,20.53,7.21z M16.67,2.99c0,0.58-0.13,2.49,0.04,2.87
	c0.95,0,1.9,0,2.85,0c-0.96-0.96-1.91-1.91-2.87-2.87C16.68,2.99,16.67,2.99,16.67,2.99z M4.72,9.94c3.34,0,6.68,0,10.02,0
	c0.96,0,3.22-0.34,2.94,0.83c-0.2,0.82-2.15,0.52-3.16,0.52c-3.24,0-6.49,0-9.73,0C3.92,11.11,4.14,10.3,4.72,9.94z M4.88,14.01
	c3.3,0,6.61,0,9.91,0c0.96,0,3.18-0.32,2.89,0.85c-0.2,0.82-2.15,0.52-3.16,0.52c-3.24,0-6.49,0-9.73,0
	c-0.53-0.11-0.82-0.9-0.31-1.25C4.61,14.1,4.75,14.05,4.88,14.01z M4.86,18.1c3.31,0,6.62,0,9.93,0c0.97,0,3.18-0.33,2.89,0.85
	c-0.2,0.82-2.15,0.52-3.16,0.52c-3.24,0-6.49,0-9.73,0C4.37,19.39,4,18.85,4.33,18.39C4.45,18.21,4.64,18.19,4.86,18.1z M4.83,22.19
	c1.74,0,3.49,0,5.23,0c0.75,0,1.77-0.06,1.57,0.83c-0.14,0.61-0.79,0.55-1.55,0.55c-1.29,0-2.59,0-3.88,0
	c-0.46,0-1.19,0.11-1.57-0.04c-0.44-0.18-0.58-0.9-0.15-1.2C4.6,22.28,4.72,22.24,4.83,22.19z"/>
</svg>
