<?xml version="1.0" encoding="utf-8"?>
<!-- Generator: Adobe Illustrator 23.1.1, SVG Export Plug-In . SVG Version: 6.00 Build 0)  -->
<svg version="1.1" id="Layer_1" xmlns="http://www.w3.org/2000/svg" xmlns:xlink="http://www.w3.org/1999/xlink" x="0px" y="0px"
	 width="21px" height="21px" viewBox="0 0 21 21" style="enable-background:new 0 0 21 21;" xml:space="preserve">
<style type="text/css">
	.st0{fill:#009ABF;}
</style>
<g id="search">
	<g>
		<path class="st0" d="M9.5,1.6c4.08,0,7.4,3.32,7.4,7.4s-3.32,7.4-7.4,7.4S2.1,13.08,2.1,9S5.42,1.6,9.5,1.6 M9.5,0
			c-4.97,0-9,4.03-9,9s4.03,9,9,9s9-4.03,9-9S14.47,0,9.5,0L9.5,0z"/>
	</g>
	<g>
		<path class="st0" d="M16.59,13.96l-2.12,2.12l3.9,3.9c0.29,0.29,0.67,0.44,1.05,0.44s0.76-0.15,1.05-0.44l0.01-0.01
			c0.59-0.59,0.59-1.54,0-2.12L16.59,13.96L16.59,13.96z"/>
	</g>
</g>
</svg>
