<?xml version="1.0" encoding="utf-8"?>
<!-- Generator: Adobe Illustrator 23.1.1, SVG Export Plug-In . SVG Version: 6.00 Build 0)  -->
<svg version="1.1" id="Capa_1" xmlns="http://www.w3.org/2000/svg" xmlns:xlink="http://www.w3.org/1999/xlink" x="0px" y="0px"
	 width="32.31px" height="29.7px" viewBox="0 0 32.31 29.7" style="enable-background:new 0 0 32.31 29.7;" xml:space="preserve">
<style type="text/css">
	.st0{fill:#F9E52D;}
</style>
<path class="st0" d="M30.98,13.46c0.61-0.59,0.83-1.47,0.56-2.28c-0.26-0.81-0.95-1.39-1.8-1.51l-7.51-1.09
	c-0.32-0.05-0.6-0.25-0.74-0.54l-3.36-6.8C17.77,0.47,17.01,0,16.15,0c-0.85,0-1.62,0.47-1.99,1.24l-3.36,6.8
	c-0.14,0.29-0.42,0.49-0.74,0.54L2.56,9.67c-0.84,0.12-1.53,0.7-1.8,1.51c-0.26,0.81-0.05,1.68,0.56,2.28l5.43,5.29
	c0.23,0.23,0.34,0.55,0.28,0.87L5.76,27.1c-0.11,0.66,0.06,1.3,0.48,1.8c0.66,0.79,1.82,1.03,2.74,0.54l6.71-3.53
	c0.28-0.15,0.63-0.15,0.91,0l6.71,3.53c0.33,0.17,0.67,0.26,1.03,0.26c0.66,0,1.28-0.29,1.71-0.8c0.43-0.5,0.6-1.15,0.48-1.8
	l-1.28-7.47c-0.05-0.32,0.05-0.64,0.28-0.87L30.98,13.46z"/>
</svg>
